#N struct 1025-rectangle float x float c;
#N struct 1025-pixel float x0 float y0 float x1 float y1;
#N canvas -8 -9 1919 976 12;
#X obj 31 240 unpack s f f;
#X floatatom 108 268 5 0 0 0 - - -;
#X floatatom 151 269 5 0 0 0 - - -;
#X symbolatom 31 268 10 0 0 0 - - -;
#X obj 31 5 nbx 5 14 -1e+037 1e+037 0 1 empty empty empty 0 -8 0 10
-262144 -1 -1 1909 256;
#X obj 31 31 xy 300 200 1;
#N canvas -19 -14 1920 976 send2sc 1;
#X obj 298 343 list prepend send;
#X obj 298 382 list trim;
#X msg 271 221 disconnect;
#X obj 237 460 netsend -u -b;
#X msg 237 183 connect localhost 57120;
#X obj 298 267 inlet mousePosition;
#X obj 472 267 inlet keyboardDown;
#X obj 298 309 oscformat /mouse;
#X obj 472 341 list prepend send;
#X obj 472 380 list trim;
#X obj 472 307 oscformat /keyboard;
#X obj 237 142 loadbang;
#X obj 642 267 inlet reset;
#X obj 642 347 list prepend send;
#X obj 642 382 list trim;
#X obj 758 241 bng 15 250 50 0 empty empty empty 17 7 0 10 -262144
-1 -1;
#X obj 642 309 oscformat /reset;
#X connect 0 0 1 0;
#X connect 1 0 3 0;
#X connect 2 0 3 0;
#X connect 4 0 3 0;
#X connect 5 0 7 0;
#X connect 6 0 10 0;
#X connect 7 0 0 0;
#X connect 8 0 9 0;
#X connect 9 0 3 0;
#X connect 10 0 8 0;
#X connect 11 0 4 0;
#X connect 12 0 16 0;
#X connect 13 0 14 0;
#X connect 14 0 3 0;
#X connect 15 0 16 0;
#X connect 16 0 13 0;
#X restore 108 423 pd send2sc;
#X obj 108 398 pack f f;
#X obj 244 267 adc~;
#N canvas -9 -9 1920 976 random-from-adc 0;
#X obj 164 88 env~;
#X floatatom 164 128 5 0 0 0 - - -;
#X obj 231 127 - 30;
#X obj 162 164 abs;
#X obj 123 213 random;
#X obj 65 165 metro 500;
#X obj 65 135 tgl 15 0 empty empty empty 17 7 0 10 -262144 -1 -1 1
1;
#X obj 123 258 outlet;
#X obj 164 43 inlet~;
#X obj 256 43 inlet;
#X obj 327 43 inlet;
#X obj 65 95 loadbang;
#X connect 0 0 1 0;
#X connect 0 0 2 0;
#X connect 2 0 3 0;
#X connect 3 0 4 1;
#X connect 4 0 7 0;
#X connect 5 0 4 0;
#X connect 6 0 5 0;
#X connect 8 0 0 0;
#X connect 9 0 2 1;
#X connect 10 0 5 1;
#X connect 11 0 6 0;
#X restore 244 294 pd random-from-adc;
#X obj 108 295 +;
#N canvas 287 418 1920 976 random-from-adc 0;
#X obj 164 88 env~;
#X floatatom 164 128 5 0 0 0 - - -;
#X obj 231 127 - 30;
#X obj 162 164 abs;
#X obj 123 213 random;
#X obj 65 165 metro 500;
#X obj 65 135 tgl 15 0 empty empty empty 17 7 0 10 -262144 -1 -1 1
1;
#X obj 123 258 outlet;
#X obj 164 43 inlet~;
#X obj 256 43 inlet;
#X obj 327 43 inlet;
#X obj 65 95 loadbang;
#X connect 0 0 1 0;
#X connect 0 0 2 0;
#X connect 2 0 3 0;
#X connect 3 0 4 1;
#X connect 4 0 7 0;
#X connect 5 0 4 0;
#X connect 6 0 5 0;
#X connect 8 0 0 0;
#X connect 9 0 2 1;
#X connect 10 0 5 1;
#X connect 11 0 6 0;
#X restore 244 321 pd random-from-adc;
#X obj 151 294 +;
#X obj 370 133 line;
#X obj 370 76 +;
#X obj 419 77 t b f;
#X floatatom 370 50 5 0 0 0 - - -;
#X obj 370 -2 loadbang;
#X msg 370 23 1820;
#X obj 198 345 keyname;
#X obj 198 397 pack f s;
#X obj 370 105 pack 1820 1000;
#X floatatom 481 60 5 0 0 0 - - -;
#X msg 481 33 500;
#X obj 481 84 +;
#X text 530 47 Smoothly set the color of the pad with a plus of x-coordinates.
Larger x \, longer ramp time.;
#X text 391 287 Add a random number to the coordiantes. The random
number is based on the amplitude of microphone input.;
#X msg 484 145 \; pdf dsp 1;
#X obj 108 371 + 100;
#X obj 108 321 / 300;
#X obj 108 346 * 200;
#X text 20 448 Map x: 0-300 to 100-300;
#X text 20 467 Map y: 0-200 to 25-200;
#X obj 151 321 / 200;
#X obj 151 346 * 175;
#X obj 150 372 + 25;
#X obj 293 398 inlet reset;
#X connect 0 0 3 0;
#X connect 0 1 1 0;
#X connect 0 2 2 0;
#X connect 1 0 10 0;
#X connect 1 0 15 0;
#X connect 2 0 12 0;
#X connect 4 0 5 0;
#X connect 5 0 0 0;
#X connect 7 0 6 0;
#X connect 8 0 9 0;
#X connect 8 0 11 0;
#X connect 8 1 9 0;
#X connect 8 1 11 0;
#X connect 9 0 10 1;
#X connect 10 0 29 0;
#X connect 11 0 12 1;
#X connect 12 0 33 0;
#X connect 13 0 4 0;
#X connect 14 0 21 0;
#X connect 15 0 14 0;
#X connect 15 0 24 0;
#X connect 15 1 14 1;
#X connect 15 1 24 1;
#X connect 16 0 14 0;
#X connect 17 0 18 0;
#X connect 17 0 23 0;
#X connect 17 0 27 0;
#X connect 18 0 16 0;
#X connect 19 0 20 0;
#X connect 19 1 20 1;
#X connect 20 0 6 1;
#X connect 21 0 13 0;
#X connect 22 0 24 0;
#X connect 23 0 22 0;
#X connect 24 0 21 1;
#X connect 28 0 7 0;
#X connect 29 0 30 0;
#X connect 30 0 28 0;
#X connect 33 0 34 0;
#X connect 34 0 35 0;
#X connect 35 0 7 1;
#X connect 36 0 6 2;
#X coords 0 200 300 0 302 202 1 30 30;
